<svg xmlns="http://www.w3.org/2000/svg" width="900" height="300" viewBox="0 0 900 300">
  <defs>
    <radialGradient id="glow" cx="50%" cy="38%" r="38%">
      <stop offset="0%" stop-color="#ff6e40" stop-opacity="0.14"/>
      <stop offset="50%" stop-color="#e64a19" stop-opacity="0.05"/>
      <stop offset="100%" stop-color="#09090b" stop-opacity="0"/>
    </radialGradient>
    <linearGradient id="topLine" x1="0%" y1="0%" x2="100%" y2="0%">
      <stop offset="0%" stop-color="#e64a19" stop-opacity="0"/>
      <stop offset="30%" stop-color="#e64a19" stop-opacity="0.4"/>
      <stop offset="50%" stop-color="#ff6e40" stop-opacity="0.7"/>
      <stop offset="70%" stop-color="#e64a19" stop-opacity="0.4"/>
      <stop offset="100%" stop-color="#e64a19" stop-opacity="0"/>
    </linearGradient>
    <linearGradient id="botLine" x1="0%" y1="0%" x2="100%" y2="0%">
      <stop offset="0%" stop-color="#27272a" stop-opacity="0"/>
      <stop offset="20%" stop-color="#27272a" stop-opacity="1"/>
      <stop offset="80%" stop-color="#27272a" stop-opacity="1"/>
      <stop offset="100%" stop-color="#27272a" stop-opacity="0"/>
    </linearGradient>
  </defs>

  <!-- Background -->
  <rect width="900" height="300" rx="12" fill="#09090b"/>

  <!-- Grid -->
  <g stroke="rgba(255,255,255,0.03)" stroke-width="0.5">
    <line x1="0" y1="50" x2="900" y2="50"/><line x1="0" y1="100" x2="900" y2="100"/>
    <line x1="0" y1="150" x2="900" y2="150"/><line x1="0" y1="200" x2="900" y2="200"/>
    <line x1="0" y1="250" x2="900" y2="250"/>
    <line x1="90" y1="0" x2="90" y2="300"/><line x1="180" y1="0" x2="180" y2="300"/>
    <line x1="270" y1="0" x2="270" y2="300"/><line x1="360" y1="0" x2="360" y2="300"/>
    <line x1="450" y1="0" x2="450" y2="300"/><line x1="540" y1="0" x2="540" y2="300"/>
    <line x1="630" y1="0" x2="630" y2="300"/><line x1="720" y1="0" x2="720" y2="300"/>
    <line x1="810" y1="0" x2="810" y2="300"/>
  </g>

  <!-- Orange glow -->
  <ellipse cx="450" cy="115" rx="300" ry="110" fill="url(#glow)"/>

  <!-- Top accent line -->
  <rect x="0" y="0" width="900" height="1.5" fill="url(#topLine)"/>

  <!--
    ICON: original viewBox 0 0 470 469 (in pt, but the internal coords use 10x)
    The potrace group does translate(0,470) scale(0.1,-0.1) on a 4700x4700 space.
    I want the icon to be 70px tall, placed at the center top.
    Using a nested SVG for clean scaling.
  -->
  <svg x="416" y="20" width="68" height="68" viewBox="0 0 470 469">
    <g transform="translate(0,470) scale(0.1,-0.1)" fill="#fafafa" stroke="none">
      <path d="M360 2850 l0 -1850 111 0 111 0 240 233 c132 127 256 245 274 260 l34 28 0 530 0 529 1220 0 1220 0 0 -522 -1 -523 273 -267 273 -267 113 -1 112 0 0 1850 0 1850 -1990 0 -1990 0 0 -1850z M1410 1877 l0 -473 -349 -347 -349 -347 -356 0 -356 0 2 -352 c2 -194 6 -352 11 -350 4 1 333 2 732 2 l725 0 0 288 0 288 116 215 c64 117 156 288 205 379 l89 164 0 503 0 503 -235 0 -235 0 0 -473z M2120 2243 c0 -60 -1 -322 -2 -583 l-2 -475 -178 -374 -178 -374 0 -213 0 -214 590 0 590 0 0 214 0 214 -111 233 c-61 129 -139 290 -173 359 l-61 125 -5 595 -5 595 -232 3 -233 2 0 -107z M2820 1848 l0 -502 92 -170 c51 -94 143 -265 205 -381 l113 -210 0 -287 0 -288 735 0 735 0 0 350 0 350 -355 0 -355 0 -350 346 -350 347 0 473 0 474 -235 0 -235 0 0 -502z"/>
    </g>
  </svg>

  <!--
    TEXT "KILNX": original viewBox 0 0 638 142.5
    The potrace group does translate(0,143) scale(0.1,-0.1).
    Want it ~26px tall, centered below the icon.
  -->
  <svg x="333" y="100" width="234" height="52" viewBox="0 0 638 143">
    <g transform="translate(0,143) scale(0.1,-0.1)" fill="#fafafa" stroke="none">
      <path d="M6 1423 c-3 -4 -6 -322 -6 -709 0 -660 1 -702 17 -706 10 -2 32 -4 48 -3 17 1 85 2 153 3 l122 2 0 275 0 276 122 -3 121 -3 201 -275 201 -275 85 1 c47 1 141 2 208 3 l124 1 -32 43 c-31 41 -220 299 -401 547 -50 69 -95 130 -100 136 -5 6 23 51 74 116 299 387 427 559 423 567 -4 5 -92 9 -196 10 l-190 0 -38 -47 c-20 -27 -113 -150 -207 -275 l-170 -226 -112 -1 -113 0 0 270 0 270 -137 1 c-76 0 -150 2 -165 4 -14 2 -29 1 -32 -2z M1688 1322 l-148 -106 0 -606 0 -605 167 2 168 1 3 711 2 711 -22 -1 c-13 0 -89 -48 -170 -107z M2127 1424 c-4 -4 -7 -324 -7 -711 l0 -703 540 0 c297 0 543 -1 548 -2 4 -2 8 68 10 155 l3 157 -297 0 -296 0 -78 -55 c-43 -30 -80 -55 -82 -55 -1 0 -2 272 0 605 l2 605 -147 0 c-82 0 -157 3 -168 6 -11 3 -24 2 -28 -2z M3380 721 l0 -710 23 -3 c12 -2 88 -2 169 0 l148 3 2 440 3 440 80 -102 c44 -56 127 -162 185 -235 235 -297 415 -527 421 -536 7 -11 37 -12 231 -10 l118 2 -3 708 -2 707 -170 0 -170 0 -5 -440 -5 -439 -135 173 c-74 96 -162 208 -195 251 -120 155 -201 257 -283 358 l-83 102 -165 0 -164 0 0 -709z M4900 1418 c0 -6 8 -21 19 -32 14 -16 432 -569 489 -647 14 -20 -17 -63 -511 -705 -18 -23 -18 -24 0 -24 111 -2 396 0 398 2 1 2 74 100 161 218 88 118 163 216 168 218 4 2 82 -95 172 -216 90 -121 169 -221 176 -223 7 -2 102 -2 211 1 l197 5 -78 100 c-87 112 -148 191 -342 445 -74 96 -158 207 -188 245 -30 39 -149 195 -265 348 l-210 277 -199 0 c-146 0 -198 -3 -198 -12z M5943 1392 c-16 -20 -72 -94 -126 -165 -66 -85 -95 -132 -90 -141 4 -7 48 -66 98 -130 l89 -116 22 22 c34 36 424 546 424 555 0 4 -88 9 -195 10 l-195 2 -27 -37z"/>
    </g>
  </svg>

  <!-- Tagline -->
  <text x="450" y="195" text-anchor="middle" font-family="Inter, -apple-system, BlinkMacSystemFont, 'Segoe UI', Helvetica, Arial, sans-serif" font-size="20" font-weight="500" fill="#a1a1aa">The backend language for the</text>
  <text x="450" y="225" text-anchor="middle" font-family="Inter, -apple-system, BlinkMacSystemFont, 'Segoe UI', Helvetica, Arial, sans-serif" font-size="24" font-weight="700" fill="#e64a19">htmx era</text>

  <!-- Stats -->
  <text x="450" y="268" text-anchor="middle" font-family="'JetBrains Mono', 'Fira Code', monospace" font-size="11" font-weight="400" fill="#52525b" letter-spacing="1.5">27 KEYWORDS · 2 DEPS · SINGLE BINARY · ZERO CONFIG</text>

  <!-- Bottom border -->
  <rect x="0" y="298.5" width="900" height="1.5" fill="url(#botLine)"/>

  <!-- Corner accents -->
  <path d="M12,0 L50,0" stroke="#e64a19" stroke-opacity="0.2" stroke-width="1" fill="none"/>
  <path d="M0,12 L0,50" stroke="#e64a19" stroke-opacity="0.2" stroke-width="1" fill="none"/>
  <path d="M850,0 L888,0" stroke="#e64a19" stroke-opacity="0.2" stroke-width="1" fill="none"/>
  <path d="M900,12 L900,50" stroke="#e64a19" stroke-opacity="0.2" stroke-width="1" fill="none"/>
  <path d="M12,300 L50,300" stroke="#e64a19" stroke-opacity="0.2" stroke-width="1" fill="none"/>
  <path d="M0,250 L0,288" stroke="#e64a19" stroke-opacity="0.2" stroke-width="1" fill="none"/>
  <path d="M850,300 L888,300" stroke="#e64a19" stroke-opacity="0.2" stroke-width="1" fill="none"/>
  <path d="M900,250 L900,288" stroke="#e64a19" stroke-opacity="0.2" stroke-width="1" fill="none"/>
</svg>